<?xml version="1.0" standalone="no"?>
<!DOCTYPE svg PUBLIC "-//W3C//DTD SVG 20010904//EN"
 "http://www.w3.org/TR/2001/REC-SVG-20010904/DTD/svg10.dtd">
<svg version="1.0" xmlns="http://www.w3.org/2000/svg"
 width="786.000000pt" height="189.000000pt" viewBox="0 0 786.000000 189.000000"
 preserveAspectRatio="xMidYMid meet">

<g transform="translate(0.000000,189.000000) scale(0.100000,-0.100000)"
fill="#000000" stroke="none">
<path d="M10 950 l0 -940 3925 0 3925 0 0 940 0 940 -3925 0 -3925 0 0 -940z
m7800 0 l0 -890 -3875 0 -3875 0 0 890 0 890 3875 0 3875 0 0 -890z"/>
<path d="M2720 1141 c0 -13 8 -21 23 -23 22 -3 22 -4 22 -178 0 -174 0 -175
-22 -178 -15 -2 -23 -10 -23 -23 0 -18 6 -20 73 -17 56 2 72 6 72 18 0 8 -10
16 -22 18 -23 3 -23 4 -23 203 l0 199 -50 0 c-43 0 -50 -3 -50 -19z"/>
<path d="M3067 1153 c-14 -14 -6 -32 16 -35 19 -3 22 -10 25 -60 2 -32 0 -58
-3 -58 -3 0 -17 7 -31 16 -30 20 -87 13 -117 -13 -65 -58 -62 -220 4 -267 29
-20 98 -21 126 -1 19 13 22 13 27 0 4 -10 20 -15 51 -15 38 0 45 3 45 19 0 13
-8 21 -22 23 -23 3 -23 4 -26 201 l-2 197 -44 0 c-23 0 -46 -3 -49 -7z m25
-190 c27 -25 26 -155 -2 -183 -22 -22 -60 -26 -90 -10 -44 24 -50 150 -9 191
23 23 76 25 101 2z"/>
<path d="M2106 1107 c-58 -33 -86 -92 -86 -182 0 -90 28 -149 86 -182 53 -30
154 -32 202 -3 32 19 32 21 32 95 l0 75 -60 0 c-53 0 -60 -2 -60 -20 0 -16 7
-20 35 -20 35 0 35 0 35 -45 0 -40 -3 -47 -26 -55 -59 -23 -125 -7 -161 40
-23 28 -35 92 -28 148 9 75 52 122 116 129 56 6 87 -8 101 -48 6 -18 17 -29
29 -29 15 0 19 7 19 40 0 36 -3 41 -40 60 -55 28 -142 27 -194 -3z"/>
<path d="M4175 983 c-32 -82 -64 -165 -72 -185 -9 -21 -21 -38 -29 -38 -8 0
-14 -9 -14 -20 0 -18 7 -20 55 -20 48 0 55 3 55 19 0 11 -5 21 -11 23 -9 3 -9
13 0 41 l13 37 79 0 80 0 15 -35 c18 -43 17 -45 -1 -45 -8 0 -15 -9 -15 -20 0
-18 7 -20 54 -20 61 0 81 16 49 37 -13 9 -44 76 -88 193 -61 160 -71 180 -91
180 -19 0 -29 -18 -79 -147z m114 -21 l30 -82 -64 0 c-36 0 -65 2 -65 4 0 2
11 35 25 72 14 38 28 75 31 83 7 20 9 15 43 -77z"/>
<path d="M2495 1020 c-46 -19 -85 -89 -85 -154 1 -48 34 -113 69 -130 70 -36
152 -12 186 54 22 42 19 138 -5 177 -32 54 -106 78 -165 53z m122 -89 c39 -94
-23 -195 -102 -165 -40 16 -59 120 -32 174 31 61 107 56 134 -9z"/>
<path d="M3319 1007 c-42 -28 -69 -79 -69 -132 0 -51 37 -126 70 -142 32 -16
111 -17 145 -1 30 13 30 45 0 40 -103 -15 -103 -15 -129 11 -14 15 -26 38 -26
52 l0 25 95 0 95 0 0 40 c0 107 -97 164 -181 107z m106 -42 c14 -13 25 -33 25
-45 0 -18 -6 -20 -70 -20 -81 0 -89 12 -41 61 36 35 54 36 86 4z"/>
<path d="M3683 1010 c-27 -16 -33 -17 -33 -5 0 11 -12 15 -50 15 -37 0 -50 -4
-50 -15 0 -8 11 -17 25 -21 l26 -6 -3 -107 c-3 -101 -4 -106 -25 -109 -15 -2
-23 -10 -23 -23 0 -18 6 -20 73 -17 56 2 72 6 72 18 0 8 -10 16 -22 18 -22 3
-23 8 -23 96 0 105 12 127 70 128 54 2 65 -20 65 -125 0 -88 -1 -92 -22 -95
-15 -2 -23 -10 -23 -23 0 -18 6 -20 73 -17 56 2 72 6 72 18 0 8 -10 16 -22 18
-22 3 -23 8 -23 97 0 105 -11 140 -51 161 -38 19 -68 18 -106 -6z"/>
<path d="M4617 1010 c-30 -24 -37 -25 -37 -5 0 11 -12 15 -45 15 -48 0 -64
-23 -25 -35 18 -6 20 -15 20 -116 0 -102 -1 -109 -20 -109 -13 0 -20 -7 -20
-20 0 -18 7 -20 70 -20 63 0 70 2 70 20 0 13 -7 20 -20 20 -19 0 -20 7 -20 94
0 87 2 96 22 110 12 9 33 16 45 16 18 0 23 6 23 25 0 31 -27 33 -63 5z"/>
<path d="M4791 1012 c-46 -23 -71 -73 -71 -140 0 -98 48 -152 135 -152 44 0
58 5 83 28 73 68 61 212 -21 262 -40 25 -82 25 -126 2z m111 -52 c29 -29 30
-34 26 -97 -3 -54 -8 -69 -27 -84 -31 -25 -75 -24 -100 2 -46 49 -33 170 19
196 37 19 48 16 82 -17z"/>
<path d="M5153 1010 c-27 -16 -33 -17 -33 -5 0 11 -12 15 -45 15 -48 0 -64
-23 -25 -35 18 -6 20 -15 20 -116 0 -102 -1 -109 -20 -109 -13 0 -20 -7 -20
-20 0 -18 7 -20 70 -20 63 0 70 2 70 20 0 13 -7 20 -20 20 -19 0 -20 7 -20 99
0 109 6 122 60 123 52 2 62 -18 64 -123 1 -90 0 -94 -21 -97 -15 -2 -23 -10
-23 -23 0 -17 8 -19 70 -19 63 0 70 2 70 20 0 13 -7 20 -20 20 -19 0 -20 7
-20 89 0 101 15 134 64 134 50 0 61 -23 61 -126 0 -88 -1 -92 -22 -95 -15 -2
-23 -10 -23 -23 0 -17 8 -19 75 -19 68 0 75 2 75 20 0 15 -7 20 -25 20 -25 0
-25 0 -25 95 0 107 -12 144 -55 163 -40 18 -71 14 -104 -13 l-30 -26 -25 26
c-31 31 -78 33 -123 5z"/>
<path d="M5640 1017 c-31 -11 -35 -17 -38 -49 -3 -33 0 -38 17 -38 14 0 21 6
21 19 0 28 58 46 94 30 27 -13 43 -48 32 -74 -4 -11 -20 -15 -56 -15 -57 0
-104 -20 -121 -51 -15 -29 -3 -85 24 -104 31 -22 99 -19 130 5 25 20 25 20 30
0 4 -14 14 -20 35 -20 37 0 51 18 29 35 -14 10 -17 31 -17 109 0 111 -8 132
-55 152 -41 17 -78 17 -125 1z m128 -185 c5 -31 -23 -60 -64 -68 -42 -8 -66
10 -62 45 4 32 41 52 88 49 28 -2 36 -8 38 -26z"/>
</g>
</svg>
